<svg width="43" height="53" xmlns="http://www.w3.org/2000/svg" xmlns:xlink="http://www.w3.org/1999/xlink">
 <!-- Generator: Sketch 53.1 (72631) - https://sketchapp.com -->
 <title>logo-svg</title>
 <desc>Created with Sketch.</desc>
 <defs>
  <path id="path-2" d="m74.23266,17.81652l0,17.277c0,3.92602 -1.06599,6.87049 -3.198,8.8335c-2.13201,1.96301 -5.19998,2.9445 -9.204,2.9445c-2.08001,0 -4.02999,-0.234 -5.85,-0.702c-1.82001,-0.468 -3.367,-1.157 -4.641,-2.067l2.691,-5.187c0.858,0.702 1.94349,1.2545 3.2565,1.6575c1.313,0.403 2.60649,0.6045 3.8805,0.6045c1.95001,0 3.37999,-0.429 4.29,-1.287c0.91,-0.85801 1.365,-2.13199 1.365,-3.822l0,-0.702c-1.43001,1.66401 -3.52299,2.496 -6.279,2.496c-1.87201,0 -3.601,-0.4225 -5.187,-1.2675c-1.58601,-0.84501 -2.847,-2.04099 -3.783,-3.588c-0.93601,-1.54701 -1.404,-3.33449 -1.404,-5.3625c0,-2.00201 0.46799,-3.77649 1.404,-5.3235c0.936,-1.54701 2.19699,-2.743 3.783,-3.588c1.586,-0.84501 3.31499,-1.2675 5.187,-1.2675c3.01601,0 5.22599,0.97499 6.63,2.925l0,-2.574l7.059,0zm-11.934,14.157c1.326,0 2.42449,-0.403 3.2955,-1.209c0.871,-0.80601 1.3065,-1.846 1.3065,-3.12c0,-1.27401 -0.429,-2.3075 -1.287,-3.1005c-0.85801,-0.79301 -1.963,-1.1895 -3.315,-1.1895c-1.35201,0 -2.4635,0.39649 -3.3345,1.1895c-0.87101,0.793 -1.3065,1.82649 -1.3065,3.1005c0,1.274 0.44199,2.31399 1.326,3.12c0.884,0.806 1.98899,1.209 3.315,1.209zm38.298,-3.549c0,0.052 -0.039,0.66299 -0.117,1.833l-15.366,0c0.312,1.092 0.91649,1.9305 1.8135,2.5155c0.897,0.585 2.02149,0.8775 3.3735,0.8775c1.014,0 1.89149,-0.143 2.6325,-0.429c0.741,-0.286 1.48849,-0.754 2.2425,-1.404l3.9,4.056c-2.05401,2.28801 -5.05698,3.432 -9.009,3.432c-2.47002,0 -4.64099,-0.468 -6.513,-1.404c-1.87201,-0.93601 -3.3215,-2.23599 -4.3485,-3.9c-1.02701,-1.66401 -1.5405,-3.54899 -1.5405,-5.655c0,-2.08001 0.50049,-3.94549 1.5015,-5.5965c1.001,-1.65101 2.38549,-2.9445 4.1535,-3.8805c1.76801,-0.93601 3.75699,-1.404 5.967,-1.404c2.10601,0 4.01699,0.43549 5.733,1.3065c1.71601,0.871 3.07449,2.13199 4.0755,3.783c1.001,1.65101 1.5015,3.60749 1.5015,5.8695zm-11.271,-5.694c-1.14401,0 -2.0995,0.32499 -2.8665,0.975c-0.76701,0.65 -1.2545,1.53399 -1.4625,2.652l8.658,0c-0.208,-1.11801 -0.6955,-2.002 -1.4625,-2.652c-0.76701,-0.65001 -1.7225,-0.975 -2.8665,-0.975zm29.289,15.366c-0.62401,0.39 -1.3845,0.689 -2.2815,0.897c-0.89701,0.208 -1.8525,0.312 -2.8665,0.312c-2.75602,0 -4.875,-0.676 -6.357,-2.028c-1.48201,-1.35201 -2.223,-3.36699 -2.223,-6.045l0,-7.098l-3.081,0l0,-5.538l3.081,0l0,-5.499l7.41,0l0,5.499l4.836,0l0,5.538l-4.836,0l0,7.02c0,0.754 0.20149,1.3455 0.6045,1.7745c0.403,0.429 0.94249,0.6435 1.6185,0.6435c0.858,0 1.61199,-0.221 2.262,-0.663l1.833,5.187zm12.441,-6.552l-2.184,2.223l0,5.187l-7.41,0l0,-28.938l7.41,0l0,15.171l7.566,-7.371l8.775,0l-8.775,9.048l9.516,12.09l-8.97,0l-5.928,-7.41zm27.027,7.761c-2.34001,0 -4.43299,-0.468 -6.279,-1.404c-1.84601,-0.93601 -3.2825,-2.23599 -4.3095,-3.9c-1.02701,-1.66401 -1.5405,-3.54899 -1.5405,-5.655c0,-2.10601 0.51349,-3.98449 1.5405,-5.6355c1.027,-1.65101 2.46349,-2.938 4.3095,-3.861c1.84601,-0.92301 3.93899,-1.3845 6.279,-1.3845c2.39201,0 4.45899,0.51349 6.201,1.5405c1.74201,1.027 2.97699,2.45049 3.705,4.2705l-5.733,2.925c-0.96201,-1.89801 -2.36599,-2.847 -4.212,-2.847c-1.32601,0 -2.4245,0.44199 -3.2955,1.326c-0.87101,0.884 -1.3065,2.10599 -1.3065,3.666c0,1.58601 0.43549,2.82749 1.3065,3.7245c0.871,0.897 1.96949,1.3455 3.2955,1.3455c1.84601,0 3.24999,-0.94899 4.212,-2.847l5.733,2.925c-0.72801,1.82001 -1.96299,3.24349 -3.705,4.2705c-1.74201,1.027 -3.80899,1.5405 -6.201,1.5405zm21.723,-21.84c3.51001,0 6.18799,0.79949 8.034,2.3985c1.84601,1.59901 2.769,4.04948 2.769,7.3515l0,11.739l-6.903,0l0,-2.73c-1.06601,2.05401 -3.14599,3.081 -6.24,3.081c-1.63801,0 -3.055,-0.286 -4.251,-0.858c-1.19601,-0.572 -2.0995,-1.3455 -2.7105,-2.3205c-0.61101,-0.97501 -0.9165,-2.0865 -0.9165,-3.3345c0,-2.00201 0.76699,-3.5555 2.301,-4.6605c1.534,-1.10501 3.89998,-1.6575 7.098,-1.6575l4.212,0c-0.13,-2.23601 -1.62499,-3.354 -4.485,-3.354c-1.01401,0 -2.041,0.1625 -3.081,0.4875c-1.04001,0.325 -1.924,0.7735 -2.652,1.3455l-2.496,-5.031c1.17,-0.78001 2.59349,-1.3845 4.2705,-1.8135c1.677,-0.429 3.36049,-0.6435 5.0505,-0.6435zm-0.273,17.16c0.858,0 1.61199,-0.208 2.262,-0.624c0.65,-0.416 1.118,-1.027 1.404,-1.833l0,-1.833l-3.198,0c-2.15801,0 -3.237,0.71499 -3.237,2.145c0,0.65 0.24699,1.17 0.741,1.56c0.494,0.39 1.16999,0.585 2.028,0.585zm15.756,-24.609l7.41,0l0,28.938l-7.41,0l0,-28.938z"/>
  <filter id="filter-3" filterUnits="objectBoundingBox" height="138.0%" width="109.2%" y="-13.6%" x="-4.6%">
   <feGaussianBlur stdDeviation="2"/>
  </filter>
  <linearGradient id="linearGradient-1" y2="50%" x2="100%" y1="50%" x1="0%">
   <stop offset="0%" stop-color="#FF7373"/>
   <stop offset="100%" stop-color="#FDDB33"/>
  </linearGradient>
 </defs>
 <g>
  <title>background</title>
  <rect fill="none" id="canvas_background" height="55" width="45" y="-1" x="-1"/>
 </g>
 <g>
  <title>Layer 1</title>
  <g fill-rule="evenodd" fill="none" id="Page-1">
   <g stroke="null" fill-rule="nonzero" id="Desktop">
    <g stroke="null" id="logo-svg">
     <path stroke="null" fill="#FDDB33" id="Path" d="m7.82179,26.451c-0.80248,1.98715 -1.50721,4.19288 -1.79361,6.77711c-1.10067,9.93163 6.44672,17.87149 16.30737,17.87149c9.86066,0 17.85434,-8.10181 17.85434,-18.09578c0,-1.84458 -0.85403,-4.47069 -0.85403,-4.47069c-0.77889,5.22982 -5.06272,8.19006 -5.06272,8.19006c2.62871,-7.00592 1.23728,-13.33574 -1.94717,-17.95893c-7.20458,-10.45964 -5.35476,-17.56426 -5.35476,-17.56426c-9.6386,8.68343 -9.05441,18.25502 -9.05441,18.25502c-0.88486,-5.80522 -8.12157,-8.11446 -8.12157,-8.11446c2.38703,4.10221 1.52824,7.28123 -0.07375,10.79317c-1.16799,2.56025 -1.89969,4.31727 -1.89969,4.31727z"/>
     <path stroke="null" fill="#F9C032" id="Path" d="m28.36065,18.76426c3.18445,4.62319 6.51274,8.69076 5.91794,17.92771l0,0c0.79307,-2.10844 1.38786,-4.91968 1.37408,-7.18564c0.023,-4.10231 -1.28228,-7.7739 -3.3267,-10.74197c-7.20458,-10.45974 -5.35476,-17.56436 -5.35476,-17.56436c-1.62202,1.46135 -2.95347,2.94769 -4.048,4.40944c0.36927,3.09919 1.65562,7.66436 5.43744,13.15482z"/>
     <g stroke="null" id="getkcal">
      <use stroke="null" id="svg_1" x="1.8" y="1.2" xlink:href="#path-2" filter="url(#filter-3)" fill="black"/>
      <use stroke="null" id="svg_2" x="1.8" y="1.2" xlink:href="#path-2" fill="#FFFFFF"/>
      <use stroke="null" id="svg_3" x="1.8" y="1.2" xlink:href="#path-2" fill="url(#linearGradient-1)"/>
     </g>
     <path stroke="null" fill="#F9C032" id="Path" d="m9.92632,18.96637l0,0c-1.09046,-5.32129 -8.12632,-7.58033 -8.12632,-7.58033c0.62216,1.06928 1.02216,2.07541 1.24759,3.04147c2.31862,0.72359 6.87873,4.53886 6.87873,4.53886z"/>
     <path stroke="null" fill="#F9C032" id="Path" d="m39.34063,28.57861c-0.4347,2.91898 -1.96115,5.13053 -3.22539,6.51547c-0.92937,8.37379 -7.49614,15.01717 -15.76393,15.94016c0.65101,0.07239 1.31431,0.11084 1.98901,0.11084c9.86065,0 17.85434,-8.10171 17.85434,-18.09578c0,-1.84458 -0.85403,-4.47069 -0.85403,-4.47069z"/>
     <path stroke="null" fill="#FF7373" id="Path" d="m26.767,39.04659c0.68293,1.43353 1.17235,2.7767 1.17235,3.68253c0,2.99749 -2.39922,5.42741 -5.35883,5.42741c-2.95962,0 -5.35883,-2.42992 -5.35883,-5.42741c0,-2.99749 5.35883,-10.78434 5.35883,-10.78434c0,0 1.2339,1.79297 2.51758,3.98946l1.6689,3.11235z"/>
    </g>
   </g>
  </g>
 </g>
</svg>